<svg width="25" height="24" viewBox="0 0 25 24" fill="none" xmlns="http://www.w3.org/2000/svg">
<path fill-rule="evenodd" clip-rule="evenodd" d="M4.37604 11C4.37604 7.00204 7.64698 3.75 11.6956 3.75C15.7442 3.75 19.0152 7.00204 19.0152 11C19.0152 14.998 15.7442 18.25 11.6956 18.25C7.64698 18.25 4.37604 14.998 4.37604 11ZM11.6956 2.25C6.83083 2.25 2.87604 6.1614 2.87604 11C2.87604 15.8386 6.83083 19.75 11.6956 19.75C13.8596 19.75 15.8435 18.9761 17.3793 17.6908L20.2458 20.5326C20.54 20.8242 21.0149 20.8222 21.3065 20.528C21.5981 20.2339 21.5961 19.759 21.3019 19.4674L18.444 16.6341C19.736 15.1127 20.5152 13.1477 20.5152 11C20.5152 6.1614 16.5604 2.25 11.6956 2.25Z" fill="#0B79D0"/>
</svg>
